<svg xmlns="http://www.w3.org/2000/svg" width="64" height="64" viewBox="0 0 64 64" fill="none">
  <ellipse cx="32" cy="54" rx="21" ry="7" fill="#041016" opacity=".55"/>
  <rect x="12" y="30" width="40" height="24" rx="3" fill="#1c2c30" stroke="#5a6a64" stroke-width="1.6"/>
  <rect x="16" y="34" width="32" height="16" rx="2" fill="#152428"/>
  <rect x="16" y="10" width="6" height="24" rx="1.6" fill="#2a3d42"/>
  <rect x="29" y="8" width="6" height="26" rx="1.6" fill="#2a3d42"/>
  <rect x="42" y="10" width="6" height="24" rx="1.6" fill="#2a3d42"/>
  <rect x="14" y="8" width="10" height="7" rx="1.6" fill="#c4a574"/>
  <rect x="27" y="6" width="10" height="7" rx="1.6" fill="#c4a574"/>
  <rect x="40" y="8" width="10" height="7" rx="1.6" fill="#c4a574"/>
  <path d="M10 52 L2 62 M54 52 L62 62" stroke="#c4a574" stroke-width="2.4" stroke-linecap="round"/>
  <circle cx="19" cy="11" r="2" fill="#ffd192"/>
  <circle cx="32" cy="9" r="2.2" fill="#ffd192"/>
  <circle cx="45" cy="11" r="2" fill="#ffd192"/>
  <circle cx="32" cy="42" r="5" fill="none" stroke="#c4a574" stroke-width="2"/>
</svg>
